<svg xmlns="http://www.w3.org/2000/svg" xmlns:xlink="http://www.w3.org/1999/xlink" width="500" zoomAndPan="magnify" viewBox="0 0 375 149.999998" height="200" preserveAspectRatio="xMidYMid meet" version="1.0"><defs><g/><clipPath id="2ff2c6d3ff"><path d="M 272.222656 0 L 320 0 L 320 46 L 272.222656 46 Z M 272.222656 0 " clip-rule="nonzero"/></clipPath><clipPath id="1e0215814f"><path d="M 297 27 L 374.972656 27 L 374.972656 103.5 L 297 103.5 Z M 297 27 " clip-rule="nonzero"/></clipPath></defs><g clip-path="url(#2ff2c6d3ff)"><path fill="#ffffff" d="M 304.398438 40.273438 C 306.335938 42.238281 308.523438 42.839844 310.480469 41.992188 L 313.761719 45.316406 C 313.917969 45.472656 314.128906 45.558594 314.347656 45.558594 C 314.402344 45.558594 314.457031 45.554688 314.511719 45.542969 L 318.996094 44.632812 C 319.289062 44.574219 319.53125 44.355469 319.617188 44.066406 C 319.707031 43.777344 319.628906 43.464844 319.417969 43.25 C 319.417969 43.25 315.898438 39.691406 314.328125 38.109375 C 315.199219 36.09375 314.644531 33.828125 312.800781 31.917969 C 312.796875 31.917969 312.796875 31.914062 312.792969 31.914062 C 312.773438 31.894531 312.757812 31.871094 312.738281 31.851562 L 294.472656 13.351562 L 295.703125 12.117188 C 296.019531 11.792969 296.019531 11.28125 295.703125 10.960938 L 291.660156 6.871094 C 291.503906 6.714844 291.296875 6.625 291.074219 6.625 C 290.855469 6.625 290.644531 6.714844 290.488281 6.871094 L 289.734375 7.640625 L 283.832031 1.660156 C 282.777344 0.589844 281.371094 0 279.871094 0 C 278.375 0 276.96875 0.589844 275.910156 1.660156 L 274.589844 3 C 272.414062 5.203125 272.414062 8.792969 274.589844 10.996094 L 280.507812 16.980469 L 279.730469 17.769531 C 279.414062 18.089844 279.414062 18.605469 279.730469 18.921875 L 283.773438 23.015625 C 283.929688 23.167969 284.136719 23.257812 284.359375 23.257812 C 284.578125 23.257812 284.789062 23.171875 284.941406 23.011719 L 286.148438 21.789062 Z M 293.320312 14.523438 L 310.585938 32.007812 L 301.140625 34.632812 L 287.300781 20.621094 Z M 275.757812 4.15625 L 277.082031 2.816406 C 277.828125 2.058594 278.816406 1.644531 279.871094 1.644531 C 280.925781 1.644531 281.917969 2.058594 282.664062 2.816406 L 288.582031 8.8125 L 281.664062 15.8125 L 275.757812 9.84375 C 274.210938 8.273438 274.210938 5.722656 275.757812 4.15625 Z M 275.757812 4.15625 " fill-opacity="1" fill-rule="nonzero"/></g><g clip-path="url(#1e0215814f)"><path fill="#ffffff" d="M 372.890625 31.683594 C 371.640625 30.425781 369.992188 29.730469 368.242188 29.730469 L 332.707031 29.730469 C 332.226562 28.183594 330.8125 27.082031 329.316406 27.230469 C 328.183594 27.351562 327.152344 28.21875 326.699219 29.4375 C 326.664062 29.527344 326.644531 29.625 326.644531 29.722656 L 326.644531 42.371094 C 325.570312 43.183594 324.636719 44.144531 323.875 45.261719 C 323.152344 46.34375 322.621094 47.535156 322.265625 48.804688 L 314.53125 48.804688 C 312.96875 48.804688 311.695312 50.089844 311.695312 51.664062 C 311.695312 53.246094 312.96875 54.53125 314.53125 54.53125 L 314.71875 54.53125 L 314.71875 74.84375 L 298.777344 95.023438 C 298.761719 95.046875 298.742188 95.070312 298.726562 95.097656 C 298.273438 95.820312 297.707031 97 297.59375 98.527344 C 297.429688 100.671875 298.234375 102.320312 298.726562 103.109375 C 298.875 103.347656 299.140625 103.496094 299.421875 103.496094 L 347.765625 103.496094 C 348.046875 103.496094 348.3125 103.347656 348.460938 103.109375 C 348.953125 102.320312 349.757812 100.671875 349.59375 98.53125 C 349.480469 97 348.914062 95.820312 348.460938 95.097656 C 348.445312 95.070312 348.425781 95.046875 348.410156 95.023438 L 332.46875 74.847656 L 332.46875 54.53125 L 332.65625 54.53125 C 334.21875 54.53125 335.492188 53.246094 335.492188 51.664062 C 335.492188 50.089844 334.21875 48.804688 332.65625 48.804688 L 329.257812 48.804688 L 329.257812 45.546875 C 329.277344 45.550781 329.296875 45.554688 329.320312 45.558594 C 329.414062 45.566406 329.507812 45.570312 329.597656 45.570312 C 330.984375 45.570312 332.257812 44.515625 332.707031 43.054688 L 368.242188 43.054688 C 371.863281 43.054688 374.8125 40.066406 374.8125 36.394531 C 374.8125 34.617188 374.132812 32.945312 372.890625 31.683594 Z M 332.65625 50.449219 C 333.3125 50.449219 333.847656 50.992188 333.847656 51.664062 C 333.847656 52.351562 333.324219 52.886719 332.65625 52.886719 L 331.648438 52.886719 C 331.191406 52.886719 330.824219 53.253906 330.824219 53.707031 L 330.824219 75.132812 C 330.824219 75.316406 330.886719 75.496094 331.003906 75.640625 L 347.089844 96.007812 C 347.441406 96.574219 347.867188 97.484375 347.953125 98.65625 C 348.0625 100.035156 347.652344 101.15625 347.289062 101.851562 L 299.898438 101.851562 C 299.535156 101.15625 299.125 100.035156 299.230469 98.652344 C 299.316406 97.484375 299.742188 96.578125 300.09375 96.011719 L 316.183594 75.640625 C 316.296875 75.496094 316.359375 75.316406 316.359375 75.132812 L 316.359375 53.710938 C 316.359375 53.253906 315.992188 52.886719 315.539062 52.886719 L 314.53125 52.886719 C 313.863281 52.886719 313.339844 52.351562 313.339844 51.664062 C 313.339844 50.996094 313.871094 50.449219 314.53125 50.449219 L 321.914062 50.449219 C 321.859375 50.832031 321.820312 51.21875 321.800781 51.617188 L 321.800781 62.902344 C 321.800781 64.164062 322.820312 65.195312 324.074219 65.195312 C 324.425781 65.195312 324.707031 65.484375 324.707031 65.84375 L 324.707031 71.730469 C 324.707031 73 325.726562 74.03125 326.984375 74.03125 C 328.238281 74.03125 329.257812 73 329.257812 71.730469 L 329.257812 50.449219 Z M 332.039062 41.414062 C 331.621094 41.414062 331.269531 41.730469 331.222656 42.148438 C 331.105469 43.285156 330.207031 43.992188 329.480469 43.921875 C 329.289062 43.902344 329.097656 43.828125 328.910156 43.6875 C 328.65625 43.511719 328.4375 43.234375 328.289062 42.90625 L 328.289062 29.886719 C 328.542969 29.320312 329.011719 28.914062 329.484375 28.867188 C 330.207031 28.792969 331.105469 29.507812 331.222656 30.636719 C 331.269531 31.058594 331.621094 31.375 332.039062 31.375 L 360.648438 31.375 C 358.007812 33.222656 355.289062 34.859375 352.535156 36.234375 C 347.742188 38.640625 342.734375 40.382812 337.652344 41.414062 Z M 332.039062 41.414062 " fill-opacity="1" fill-rule="nonzero"/></g><path fill="#ffffff" d="M 320.6875 72.066406 C 322.207031 72.066406 323.441406 70.820312 323.441406 69.28125 C 323.441406 67.746094 322.207031 66.496094 320.6875 66.496094 C 319.167969 66.496094 317.929688 67.746094 317.929688 69.28125 C 317.929688 70.816406 319.167969 72.066406 320.6875 72.066406 Z M 320.6875 72.066406 " fill-opacity="1" fill-rule="nonzero"/><path fill="#ffffff" d="M 324.707031 78.113281 C 324.707031 79.648438 325.945312 80.898438 327.464844 80.898438 C 328.988281 80.898438 330.226562 79.648438 330.226562 78.113281 C 330.226562 76.578125 328.988281 75.328125 327.464844 75.328125 C 325.945312 75.328125 324.707031 76.578125 324.707031 78.113281 Z M 324.707031 78.113281 " fill-opacity="1" fill-rule="nonzero"/><path fill="#ffffff" d="M 330.226562 84.988281 C 330.226562 83.453125 328.988281 82.203125 327.464844 82.203125 C 326.730469 82.203125 326.039062 82.496094 325.515625 83.019531 C 324.992188 83.539062 324.707031 84.238281 324.707031 84.988281 C 324.707031 85.296875 324.589844 85.585938 324.378906 85.796875 C 324.226562 85.949219 323.964844 86.128906 323.589844 86.128906 C 323.296875 86.128906 323.019531 86.011719 322.804688 85.796875 C 322.597656 85.585938 322.480469 85.296875 322.480469 84.988281 L 322.480469 79.097656 C 322.480469 77.5625 321.242188 76.3125 319.722656 76.3125 C 318.984375 76.3125 318.269531 76.613281 317.769531 77.128906 C 317.246094 77.652344 316.960938 78.347656 316.960938 79.097656 L 316.960938 84.988281 C 316.960938 85.617188 316.460938 86.128906 315.84375 86.128906 L 312.527344 86.128906 C 311.71875 86.128906 310.949219 86.488281 310.417969 87.117188 L 305.300781 93.257812 C 305.28125 93.28125 305.261719 93.304688 305.246094 93.328125 C 304.898438 93.851562 304.464844 94.710938 304.375 95.84375 C 304.261719 97.3125 304.785156 98.464844 305.242188 99.175781 C 305.394531 99.410156 305.652344 99.550781 305.933594 99.550781 L 341.261719 99.550781 C 341.542969 99.550781 341.800781 99.410156 341.953125 99.175781 C 342.410156 98.464844 342.929688 97.3125 342.820312 95.839844 C 342.730469 94.714844 342.292969 93.851562 341.945312 93.328125 C 341.929688 93.304688 341.914062 93.28125 341.894531 93.261719 L 337.597656 88.101562 C 337.070312 87.46875 336.300781 87.109375 335.480469 87.109375 L 331.347656 87.109375 C 330.734375 87.109375 330.230469 86.597656 330.230469 85.964844 L 330.230469 84.988281 Z M 331.34375 88.75 L 335.476562 88.75 C 335.804688 88.75 336.117188 88.898438 336.332031 89.152344 L 340.597656 94.277344 C 340.832031 94.640625 341.117188 95.222656 341.175781 95.96875 C 341.238281 96.757812 341.027344 97.421875 340.78125 97.910156 L 306.402344 97.910156 C 306.15625 97.417969 305.949219 96.757812 306.007812 95.972656 C 306.066406 95.222656 306.351562 94.640625 306.589844 94.277344 L 311.671875 88.175781 C 311.886719 87.921875 312.199219 87.773438 312.523438 87.773438 L 315.84375 87.773438 C 317.363281 87.773438 318.601562 86.523438 318.601562 84.988281 L 318.601562 79.097656 C 318.601562 78.789062 318.71875 78.503906 318.933594 78.285156 C 319.136719 78.078125 319.421875 77.957031 319.71875 77.957031 C 320.335938 77.957031 320.835938 78.46875 320.835938 79.101562 L 320.835938 84.988281 C 320.835938 85.738281 321.125 86.441406 321.636719 86.953125 C 322.148438 87.476562 322.859375 87.773438 323.585938 87.773438 C 324.320312 87.773438 325.011719 87.484375 325.539062 86.960938 C 326.0625 86.441406 326.347656 85.742188 326.347656 84.992188 C 326.347656 84.679688 326.464844 84.394531 326.675781 84.183594 C 326.890625 83.96875 327.171875 83.851562 327.464844 83.851562 C 328.082031 83.851562 328.582031 84.363281 328.582031 84.992188 L 328.582031 85.96875 C 328.582031 87.5 329.820312 88.75 331.34375 88.75 Z M 331.34375 88.75 " fill-opacity="1" fill-rule="nonzero"/><path fill="#ffffff" d="M 319.71875 91.035156 C 317.039062 91.035156 315.019531 92.230469 315.019531 93.820312 C 315.019531 95.40625 317.039062 96.605469 319.71875 96.605469 C 322.394531 96.605469 324.410156 95.40625 324.410156 93.820312 C 324.410156 92.230469 322.394531 91.035156 319.71875 91.035156 Z M 319.71875 91.035156 " fill-opacity="1" fill-rule="nonzero"/><path fill="#ffffff" d="M 326.644531 92.84375 C 326.644531 94.429688 328.664062 95.625 331.34375 95.625 C 334.023438 95.625 336.042969 94.429688 336.042969 92.84375 C 336.042969 91.253906 334.023438 90.054688 331.34375 90.054688 C 328.664062 90.054688 326.644531 91.253906 326.644531 92.84375 Z M 326.644531 92.84375 " fill-opacity="1" fill-rule="nonzero"/><g fill="#ffffff" fill-opacity="1"><g transform="translate(109.122829, 147.425165)"><g><path d="M 28.328125 0 L 4.359375 0 L 4.359375 -40.359375 L 28.328125 -40.359375 L 28.328125 -31.609375 L 15.265625 -31.609375 L 15.265625 -25.265625 L 27.359375 -25.265625 L 27.359375 -16.515625 L 15.265625 -16.515625 L 15.265625 -8.890625 L 28.328125 -8.890625 Z M 28.328125 0 "/></g></g></g><g fill="#ffffff" fill-opacity="1"><g transform="translate(140.155199, 147.425165)"><g><path d="M 40.71875 0 L 28.109375 0 L 20.234375 -12.625 L 12.453125 0 L 0.109375 0 L 13.5 -20.65625 L 0.90625 -40.359375 L 13 -40.359375 L 20.296875 -27.890625 L 27.3125 -40.359375 L 39.765625 -40.359375 L 26.96875 -19.796875 Z M 40.71875 0 "/></g></g></g><g fill="#ffffff" fill-opacity="1"><g transform="translate(181.043941, 147.425165)"><g><path d="M 33.65625 -27.53125 C 33.65625 -23.019531 32.320312 -19.535156 29.65625 -17.078125 C 27 -14.617188 23.222656 -13.390625 18.328125 -13.390625 L 15.265625 -13.390625 L 15.265625 0 L 4.359375 0 L 4.359375 -40.359375 L 18.328125 -40.359375 C 23.429688 -40.359375 27.257812 -39.242188 29.8125 -37.015625 C 32.375 -34.796875 33.65625 -31.632812 33.65625 -27.53125 Z M 15.265625 -22.28125 L 17.25 -22.28125 C 18.894531 -22.28125 20.195312 -22.738281 21.15625 -23.65625 C 22.125 -24.582031 22.609375 -25.851562 22.609375 -27.46875 C 22.609375 -30.195312 21.097656 -31.5625 18.078125 -31.5625 L 15.265625 -31.5625 Z M 15.265625 -22.28125 "/></g></g></g><g fill="#ffffff" fill-opacity="1"><g transform="translate(216.769818, 147.425165)"><g><path d="M 4.359375 0 L 4.359375 -40.359375 L 15.265625 -40.359375 L 15.265625 -8.8125 L 30.8125 -8.8125 L 30.8125 0 Z M 4.359375 0 "/></g></g></g><g fill="#ffffff" fill-opacity="1"><g transform="translate(249.679591, 147.425165)"><g><path d="M 29.125 0 L 27.140625 -7.5625 L 14.03125 -7.5625 L 11.984375 0 L 0 0 L 13.171875 -40.53125 L 27.71875 -40.53125 L 41.0625 0 Z M 24.875 -16.515625 L 23.140625 -23.140625 C 22.734375 -24.609375 22.238281 -26.507812 21.65625 -28.84375 C 21.082031 -31.1875 20.703125 -32.863281 20.515625 -33.875 C 20.347656 -32.9375 20.019531 -31.390625 19.53125 -29.234375 C 19.039062 -27.085938 17.960938 -22.847656 16.296875 -16.515625 Z M 24.875 -16.515625 "/></g></g></g><g fill="#ffffff" fill-opacity="1"><g transform="translate(290.733987, 147.425165)"><g><path d="M 18.78125 -25.40625 L 25.734375 -40.359375 L 37.546875 -40.359375 L 24.265625 -15.765625 L 24.265625 0 L 13.28125 0 L 13.28125 -15.4375 L 0 -40.359375 L 11.875 -40.359375 Z M 18.78125 -25.40625 "/></g></g></g><g fill="#ffffff" fill-opacity="1"><g transform="translate(328.28205, 147.425165)"><g><path d="M 42.796875 0 L 28.5 0 L 13.75 -28.4375 L 13.5 -28.4375 C 13.851562 -23.96875 14.03125 -20.554688 14.03125 -18.203125 L 14.03125 0 L 4.359375 0 L 4.359375 -40.359375 L 18.609375 -40.359375 L 33.296875 -12.3125 L 33.46875 -12.3125 C 33.207031 -16.382812 33.078125 -19.648438 33.078125 -22.109375 L 33.078125 -40.359375 L 42.796875 -40.359375 Z M 42.796875 0 "/></g></g></g></svg>